<svg xmlns="http://www.w3.org/2000/svg" width="20" height="20" viewBox="0 0 24 24" fill="none" stroke="currentColor"><path d="M20.52 3.48A11.86 11.86 0 0 0 12 .6C5.74.6.6 5.74.6 12a11.32 11.32 0 0 0 1.55 5.79L.6 23.4l5.77-1.52A11.46 11.46 0 0 0 12 23.4c6.26 0 11.4-5.14 11.4-11.4a11.3 11.3 0 0 0-2.88-8.52zM12 21a9 9 0 1 1 9-9 9 9 0 0 1-9 9z"/><path d="M16.24 14.4c-.26-.13-1.53-.75-1.77-.83s-.41-.13-.58.13-.66.83-.8 1-.3.19-.55.06a7.34 7.34 0 0 1-2.16-1.33 8.16 8.16 0 0 1-1.52-1.88c-.16-.26 0-.4.12-.53s.26-.3.39-.45a1.78 1.78 0 0 0 .26-.45.49.49 0 0 0 0-.45c0-.13-.58-1.39-.8-1.9s-.43-.45-.58-.45h-.45a.87.87 0 0 0-.64.3 2.71 2.71 0 0 0-.86 2 4.72 4.72 0 0 0 1 2.49 10.83 10.83 0 0 0 4.07 3.73A13.75 13.75 0 0 0 13 16a2.42 2.42 0 0 0 1.61-.75 2 2 0 0 0 .39-1.21c0-.09 0-.17-.06-.21z"/></svg>